<svg width="42" height="40" viewBox="0 0 42 40" fill="none" xmlns="http://www.w3.org/2000/svg">
<path fill-rule="evenodd" clip-rule="evenodd" d="M34.0358 20C34.0358 27.3637 28.0662 33.3333 20.7025 33.3333C13.3387 33.3333 7.36914 27.3637 7.36914 20C7.36914 12.6362 13.3387 6.66663 20.7025 6.66663C28.0662 6.66663 34.0358 12.6362 34.0358 20ZM24.7025 16C24.7025 18.2092 22.9117 20 20.7025 20C18.4933 20 16.7025 18.2092 16.7025 16C16.7025 13.7908 18.4933 12 20.7025 12C22.9117 12 24.7025 13.7908 24.7025 16ZM20.7025 31.3333C23.0811 31.3333 25.2887 30.6005 27.1117 29.3482C27.9169 28.7952 28.2609 27.7416 27.7929 26.8842C26.8225 25.107 24.8227 24 20.7023 24C16.5821 24 14.5824 25.1069 13.612 26.8842C13.1439 27.7416 13.4879 28.795 14.2931 29.3481C16.116 30.6004 18.3237 31.3333 20.7025 31.3333Z" fill="#606980"/>
</svg>
