<svg width="24" height="24" viewBox="0 0 24 24" fill="none" xmlns="http://www.w3.org/2000/svg">
<g clip-path="url(#clip0_948_2773)">
<path d="M0 12C0 5.37258 5.37258 0 12 0C18.6274 0 24 5.37258 24 12C24 18.6274 18.6274 24 12 24C5.37258 24 0 18.6274 0 12Z" fill="#F5F6FA"/>
<g clip-path="url(#clip1_948_2773)">
<path d="M24 0H0V12H24V0Z" fill="#0057B8"/>
<path d="M24 12H0V24H24V12Z" fill="#FFD700"/>
</g>
</g>
<defs>
<clipPath id="clip0_948_2773">
<path d="M0 12C0 5.37258 5.37258 0 12 0C18.6274 0 24 5.37258 24 12C24 18.6274 18.6274 24 12 24C5.37258 24 0 18.6274 0 12Z" fill="white"/>
</clipPath>
<clipPath id="clip1_948_2773">
<rect width="24" height="24" fill="white"/>
</clipPath>
</defs>
</svg>
