<svg width="50" height="40" viewBox="0 0 50 40" fill="none" xmlns="http://www.w3.org/2000/svg">
<path d="M29.5562 20.9062L29.1007 21.359C29.1007 21.359 28.0181 22.4355 25.0631 19.4972C22.1081 16.559 23.1907 15.4826 23.1907 15.4826L23.4775 15.1974C24.1841 14.4948 24.2507 13.3669 23.6342 12.5435L22.3733 10.8591C21.6103 9.83992 20.136 9.70529 19.2614 10.5748L17.6918 12.1355C17.2582 12.5667 16.9676 13.1256 17.0029 13.7456C17.093 15.3318 17.8107 18.7447 21.8154 22.7266C26.0621 26.9492 30.0468 27.117 31.6763 26.9651C32.1917 26.9171 32.6399 26.6546 33.0011 26.2954L34.4217 24.883C35.3806 23.9295 35.1102 22.2949 33.8833 21.628L31.9728 20.5894C31.1672 20.1515 30.1858 20.2801 29.5562 20.9062Z" fill="#606980"/>
</svg>
